<svg width="480" height="79" viewBox="0 0 480 79" fill="none" xmlns="http://www.w3.org/2000/svg">
<path d="M232.836 75.705L230.644 72.362C230.44 72.3806 230.208 72.3899 229.976 72.3899H227.199V75.705H226.001V65.2676H229.967C232.576 65.2676 234.08 66.549 234.08 68.7683C234.08 70.4862 233.226 71.6655 231.722 72.1391L234.182 75.705H232.827H232.836ZM229.976 71.2941C231.87 71.2941 232.947 70.4491 232.947 68.8055C232.947 67.1619 231.87 66.3726 229.976 66.3726H227.199V71.2941H229.976Z" fill="white"/>
<path d="M244.889 72.2134H238.472C238.667 73.7642 239.782 74.7764 241.323 74.7764C242.289 74.7764 243.143 74.4142 243.756 73.7735L244.397 74.4421C243.654 75.2592 242.549 75.7421 241.231 75.7421C238.918 75.7421 237.321 74.117 237.321 71.777C237.321 69.4369 238.928 67.8305 241.212 67.8119C243.747 67.8119 245.001 69.5577 244.88 72.2134H244.889ZM243.84 71.2941C243.766 69.7712 242.753 68.7869 241.212 68.7869C239.67 68.7869 238.63 69.7712 238.472 71.2941H243.84Z" fill="white"/>
<path d="M253.256 75.705V74.4792C252.633 75.3335 251.631 75.7514 250.377 75.7514C248.752 75.7514 247.712 74.7206 247.712 73.3835C247.712 72.0463 248.798 71.1456 250.646 71.1363H253.228V70.6441C253.228 69.4926 252.513 68.7962 251.129 68.7962C250.265 68.7962 249.458 69.1212 248.641 69.7062L248.148 68.889C249.16 68.2205 250.015 67.8304 251.352 67.8304C253.293 67.8304 254.361 68.8612 254.379 70.5327L254.398 75.7235H253.265L253.256 75.705ZM253.237 73.0027V72.0463H250.795C249.485 72.0463 248.798 72.4456 248.798 73.3278C248.798 74.2099 249.495 74.7764 250.6 74.7764C251.928 74.7764 252.94 74.117 253.237 73.0027Z" fill="white"/>
<path d="M261.613 68.8612C259.988 68.8612 258.827 70.0498 258.827 71.7863C258.827 73.5227 259.988 74.7207 261.613 74.7207C262.644 74.7207 263.489 74.3585 264.046 73.7085L264.714 74.3956C264.018 75.2406 262.922 75.7514 261.567 75.7514C259.282 75.7514 257.676 74.1263 257.676 71.7863C257.676 69.4462 259.301 67.8212 261.567 67.8212C262.839 67.8212 263.879 68.2576 264.594 68.9819L263.953 69.7898C263.359 69.2048 262.569 68.8612 261.613 68.8612Z" fill="white"/>
<path d="M272.31 67.8212V68.9541C270.657 68.9262 269.627 69.957 269.497 71.5356V75.7143H268.336V67.8676H269.497V69.6134C270.017 68.4619 270.992 67.8398 272.31 67.8212Z" fill="white"/>
<path d="M282.135 72.2134H275.718C275.913 73.7642 277.028 74.7764 278.569 74.7764C279.535 74.7764 280.389 74.4142 281.002 73.7735L281.643 74.4421C280.9 75.2592 279.795 75.7421 278.476 75.7421C276.164 75.7421 274.567 74.117 274.567 71.777C274.567 69.4369 276.173 67.8305 278.458 67.8119C280.993 67.8119 282.246 69.5577 282.126 72.2134H282.135ZM281.095 71.2941C281.021 69.7712 280.009 68.7869 278.467 68.7869C276.926 68.7869 275.885 69.7712 275.728 71.2941H281.095Z" fill="white"/>
<path d="M292.842 64.6454V75.7143H291.681V74.0335C291.096 75.1385 290.028 75.7793 288.626 75.7793C286.388 75.7793 284.837 74.1263 284.837 71.7863C284.837 69.4462 286.388 67.8212 288.607 67.8212C290.009 67.8212 291.096 68.4619 291.681 69.5855V64.664H292.842V64.6454ZM291.681 71.7956C291.681 70.0684 290.502 68.8148 288.849 68.8148C287.196 68.8148 285.998 70.0684 285.998 71.7956C285.998 73.5227 287.177 74.7671 288.849 74.7671C290.52 74.7671 291.681 73.532 291.681 71.7956Z" fill="white"/>
<path d="M298.571 65.6111C298.571 66.0569 298.246 66.4004 297.81 66.4004C297.373 66.4004 297.048 66.0569 297.048 65.6111C297.048 65.1654 297.373 64.8218 297.81 64.8218C298.246 64.8218 298.571 65.1468 298.571 65.6111ZM298.385 67.8583V75.705H297.234V67.8583H298.385Z" fill="white"/>
<path d="M306.771 75.1664C306.223 75.5378 305.619 75.7514 304.997 75.7514C303.846 75.77 303.001 75.0828 303.001 73.532V69.0098H301.868V68.0998H303.001V66.0383H304.152V68.0998H306.641V69.0098H304.152V73.3371C304.152 74.2935 304.524 74.6835 305.192 74.6835C305.591 74.6649 306.009 74.5349 306.446 74.2842L306.771 75.1757V75.1664Z" fill="white"/>
<path d="M314.896 75.705V74.4792C314.274 75.3335 313.271 75.7514 312.017 75.7514C310.392 75.7514 309.352 74.7206 309.352 73.3835C309.352 72.0463 310.439 71.1456 312.286 71.1363H314.868V70.6441C314.868 69.4926 314.153 68.7962 312.769 68.7962C311.906 68.7962 311.098 69.1212 310.281 69.7062L309.788 68.889C310.801 68.2205 311.655 67.8304 312.992 67.8304C314.933 67.8304 316.001 68.8612 316.019 70.5327L316.038 75.7235H314.905L314.896 75.705ZM314.877 73.0027V72.0463H312.435C311.126 72.0463 310.438 72.4456 310.438 73.3278C310.438 74.2099 311.135 74.7764 312.24 74.7764C313.568 74.7764 314.58 74.117 314.877 73.0027Z" fill="white"/>
<path d="M327.33 64.6454V75.7143H326.169V74.0335C325.584 75.1385 324.516 75.7793 323.114 75.7793C320.876 75.7793 319.325 74.1263 319.325 71.7863C319.325 69.4462 320.876 67.8212 323.095 67.8212C324.497 67.8212 325.584 68.4619 326.169 69.5855V64.664H327.33V64.6454ZM326.169 71.7956C326.169 70.0684 324.99 68.8148 323.337 68.8148C321.684 68.8148 320.486 70.0684 320.486 71.7956C320.486 73.5227 321.665 74.7671 323.337 74.7671C325.008 74.7671 326.169 73.532 326.169 71.7956Z" fill="white"/>
<path d="M336.606 75.705V74.4792C335.984 75.3335 334.981 75.7514 333.728 75.7514C332.103 75.7514 331.063 74.7206 331.063 73.3835C331.063 72.0463 332.149 71.1456 333.997 71.1363H336.579V70.6441C336.579 69.4926 335.864 68.7962 334.48 68.7962C333.616 68.7962 332.809 69.1212 331.991 69.7062L331.499 68.889C332.511 68.2205 333.366 67.8304 334.703 67.8304C336.644 67.8304 337.711 68.8612 337.73 70.5327L337.749 75.7235H336.616L336.606 75.705ZM336.588 73.0027V72.0463H334.146C332.836 72.0463 332.149 72.4456 332.149 73.3278C332.149 74.2099 332.846 74.7764 333.951 74.7764C335.279 74.7764 336.291 74.117 336.588 73.0027Z" fill="white"/>
<path d="M354.556 72.2134H348.139C348.334 73.7642 349.449 74.7764 350.99 74.7764C351.956 74.7764 352.81 74.4142 353.423 73.7735L354.064 74.4421C353.321 75.2592 352.216 75.7421 350.897 75.7421C348.585 75.7421 346.988 74.117 346.988 71.777C346.988 69.4369 348.594 67.8305 350.879 67.8119C353.414 67.8119 354.667 69.5577 354.547 72.2134H354.556ZM353.516 71.2941C353.442 69.7712 352.43 68.7869 350.888 68.7869C349.347 68.7869 348.307 69.7712 348.149 71.2941H353.516Z" fill="white"/>
<path d="M365.235 70.8763V75.705H364.074V71.1734C364.074 69.7712 363.238 68.9355 361.855 68.9355C360.304 68.954 359.348 69.9755 359.218 71.4984V75.705H358.057V67.8583H359.218V69.5855C359.765 68.3969 360.824 67.8305 362.263 67.8119C364.139 67.8119 365.244 68.9633 365.244 70.867L365.235 70.8763Z" fill="white"/>
<path d="M382.043 73.0399H376.36L375.199 75.705H373.936L378.616 65.2676H379.851L384.522 75.705H383.222L382.043 73.0399ZM381.56 71.9349L379.192 66.5676L376.852 71.9349H381.56Z" fill="white"/>
<path d="M388.719 64.6454V75.7143H387.558V64.6454H388.719Z" fill="white"/>
<path d="M397.169 75.1664C396.621 75.5378 396.018 75.7514 395.396 75.7514C394.244 75.77 393.399 75.0828 393.399 73.532V69.0098H392.266V68.0998H393.399V66.0383H394.551V68.0998H397.039V69.0098H394.551V73.3371C394.551 74.2935 394.922 74.6835 395.591 74.6835C395.99 74.6649 396.408 74.5349 396.844 74.2842L397.169 75.1757V75.1664Z" fill="white"/>
<path d="M405.304 75.705V74.4792C404.682 75.3335 403.679 75.7514 402.425 75.7514C400.8 75.7514 399.76 74.7206 399.76 73.3835C399.76 72.0463 400.846 71.1456 402.694 71.1363H405.276V70.6441C405.276 69.4926 404.561 68.7962 403.177 68.7962C402.314 68.7962 401.506 69.1212 400.689 69.7062L400.196 68.889C401.209 68.2205 402.063 67.8304 403.4 67.8304C405.341 67.8304 406.409 68.8612 406.427 70.5327L406.446 75.7235H405.313L405.304 75.705ZM405.285 73.0027V72.0463H402.843C401.534 72.0463 400.847 72.4456 400.847 73.3278C400.847 74.2099 401.543 74.7764 402.648 74.7764C403.976 74.7764 404.988 74.117 405.285 73.0027Z" fill="white"/>
<path d="M421.118 66.3261C418.759 66.3261 416.865 68.1648 416.865 70.4677C416.865 72.7706 418.759 74.6278 421.118 74.6278C422.269 74.6278 423.384 74.1542 424.201 73.3742L424.934 74.1635C423.904 75.1292 422.501 75.7421 421.053 75.7421C418.044 75.7421 415.658 73.4113 415.658 70.4584C415.658 67.5054 418.072 65.2211 421.099 65.2211C422.529 65.2211 423.913 65.8061 424.916 66.744L424.201 67.6076C423.393 66.7997 422.26 66.3076 421.118 66.3076V66.3261Z" fill="white"/>
<path d="M433.292 75.705V74.4792C432.67 75.3335 431.667 75.7514 430.413 75.7514C428.788 75.7514 427.748 74.7206 427.748 73.3835C427.748 72.0463 428.835 71.1456 430.682 71.1363H433.264V70.6441C433.264 69.4926 432.549 68.7962 431.165 68.7962C430.302 68.7962 429.494 69.1212 428.677 69.7062L428.184 68.889C429.197 68.2205 430.051 67.8304 431.388 67.8304C433.329 67.8304 434.397 68.8612 434.415 70.5327L434.434 75.7235H433.301L433.292 75.705ZM433.273 73.0027V72.0463H430.831C429.522 72.0463 428.834 72.4456 428.834 73.3278C428.834 74.2099 429.531 74.7764 430.636 74.7764C431.964 74.7764 432.976 74.117 433.273 73.0027Z" fill="white"/>
<path d="M439.745 64.6454V75.7143H438.585V64.6454H439.745Z" fill="white"/>
<path d="M445.466 65.6111C445.466 66.0569 445.141 66.4004 444.704 66.4004C444.268 66.4004 443.943 66.0569 443.943 65.6111C443.943 65.1654 444.268 64.8218 444.704 64.8218C445.141 64.8218 445.466 65.1468 445.466 65.6111ZM445.289 67.8583V75.705H444.138V67.8583H445.289Z" fill="white"/>
<path d="M456.832 64.6454V75.7143H455.671V74.0335C455.086 75.1385 454.018 75.7793 452.616 75.7793C450.378 75.7793 448.827 74.1263 448.827 71.7863C448.827 69.4462 450.378 67.8212 452.597 67.8212C453.999 67.8212 455.086 68.4619 455.671 69.5855V64.664H456.832V64.6454ZM455.671 71.7956C455.671 70.0684 454.492 68.8148 452.839 68.8148C451.186 68.8148 449.988 70.0684 449.988 71.7956C449.988 73.5227 451.167 74.7671 452.839 74.7671C454.51 74.7671 455.671 73.532 455.671 71.7956Z" fill="white"/>
<path d="M466.108 75.705V74.4792C465.486 75.3335 464.483 75.7514 463.23 75.7514C461.604 75.7514 460.564 74.7206 460.564 73.3835C460.564 72.0463 461.651 71.1456 463.499 71.1363H466.08V70.6441C466.08 69.4926 465.365 68.7962 463.982 68.7962C463.118 68.7962 462.31 69.1212 461.493 69.7062L461.001 68.889C462.013 68.2205 462.867 67.8304 464.205 67.8304C466.145 67.8304 467.213 68.8612 467.232 70.5327L467.25 75.7235H466.117L466.108 75.705ZM466.09 73.0027V72.0463H463.647C462.338 72.0463 461.651 72.4456 461.651 73.3278C461.651 74.2099 462.347 74.7764 463.452 74.7764C464.78 74.7764 465.792 74.117 466.09 73.0027Z" fill="white"/>
<path d="M478.542 64.6454V75.7143H477.381V74.0335C476.796 75.1385 475.729 75.7793 474.326 75.7793C472.088 75.7793 470.538 74.1263 470.538 71.7863C470.538 69.4462 472.088 67.8212 474.308 67.8212C475.71 67.8212 476.796 68.4619 477.381 69.5855V64.664H478.542V64.6454ZM477.381 71.7956C477.381 70.0684 476.202 68.8148 474.549 68.8148C472.896 68.8148 471.698 70.0684 471.698 71.7956C471.698 73.5227 472.878 74.7671 474.549 74.7671C476.221 74.7671 477.381 73.532 477.381 71.7956Z" fill="white"/>
<path d="M237.293 49.2307C240.506 49.2307 242.726 46.9928 242.726 43.2877V26.7216H249.987V43.2877C249.987 50.8186 245.066 55.5823 237.247 55.5823C229.428 55.5823 224.349 50.8186 224.349 43.2877V26.7216H231.61V43.2877C231.61 46.9463 233.987 49.2307 237.284 49.2307H237.293Z" fill="white"/>
<path d="M276.87 41.3841V55.2573H269.85V43.4548C269.85 40.9755 268.42 39.4248 266.2 39.4248C263.823 39.4619 262.272 41.1334 261.994 43.6127V55.248H254.927V33.231H261.994V36.8154C263.498 34.2896 265.959 32.9524 269.098 32.9524C273.778 32.9524 276.879 36.2118 276.879 41.3748L276.87 41.3841Z" fill="white"/>
<path d="M288.7 33.2403V55.2573H281.68V33.2403H288.7ZM288.422 27.0559C288.422 28.9688 287.075 30.3524 285.209 30.3524C283.342 30.3524 281.996 28.9688 281.996 27.0559C281.996 25.143 283.342 23.7222 285.209 23.7222C287.075 23.7222 288.422 25.1058 288.422 27.0559Z" fill="white"/>
<path d="M298.469 33.2403L302.954 48.5436L307.477 33.2403H314.543L306.483 55.2573H299.221L291.208 33.2403H298.469Z" fill="white"/>
<path d="M336.532 46.1849H321.61C322.287 48.6642 324.07 50.0479 326.494 50.0479C328.323 50.0479 330.106 49.2771 331.536 47.8099L335.232 51.5986C333.05 54.1244 329.837 55.508 325.863 55.508C318.833 55.508 314.515 51.0693 314.515 44.3556C314.515 37.6418 319 32.9989 325.705 32.9989C333.208 32.9989 337.015 38.1711 336.541 46.1849H336.532ZM329.707 42.3127C329.707 39.7869 328.119 38.0783 325.742 38.0783C323.365 38.0783 321.935 39.7869 321.452 42.3127H329.707Z" fill="white"/>
<path d="M354.157 32.9524V39.5826C350.229 39.174 347.61 40.9662 347.248 44.0213V55.2573H340.182V33.2403H347.248V36.8989C348.715 34.3732 351.139 32.9524 354.157 32.9524Z" fill="white"/>
<path d="M364.761 37.9576C363.573 37.9576 362.737 38.4033 362.737 39.3412C362.737 42.2291 374.01 40.8455 373.973 48.4971C373.973 53.0101 370.119 55.5823 364.882 55.5823C361.27 55.5823 357.816 54.5237 355.197 52.4529L357.416 47.7728C359.877 49.5186 362.654 50.5029 365.04 50.5029C366.349 50.5029 367.306 50.0572 367.306 49.1564C367.306 46.1478 356.237 47.6521 356.237 40.0376C356.237 35.4411 360.007 32.9153 365.049 32.9153C368.142 32.9153 371.28 33.8068 373.982 35.4782L371.605 40.1955C368.949 38.7748 366.526 37.9576 364.78 37.9576H364.761Z" fill="white"/>
<path d="M384.81 33.2403V55.2573H377.78V33.2403H384.81ZM384.531 27.0559C384.531 28.9688 383.185 30.3524 381.318 30.3524C379.452 30.3524 378.105 28.9688 378.105 27.0559C378.105 25.143 379.452 23.7222 381.318 23.7222C383.185 23.7222 384.531 25.1058 384.531 27.0559Z" fill="white"/>
<path d="M404.171 54.1151C402.62 55.053 400.475 55.5823 398.377 55.5823C394.207 55.6195 391.189 53.103 391.189 48.5436V39.0998H388.208V34.2989H391.189V28.198H398.209V34.2989H403.762V39.0998H398.209V47.4014C398.209 49.0264 398.925 49.76 400.15 49.7228C400.865 49.7228 401.775 49.435 402.806 48.9893L404.153 54.1151H404.171Z" fill="white"/>
<path d="M426.643 40.9291V55.2573H419.697V52.7779C418.304 54.6073 416.122 55.5823 413.225 55.5823C408.619 55.5823 405.88 52.7315 405.88 48.7014C405.88 44.6713 408.777 42.1084 414.098 42.0248H419.697V41.7834C419.697 39.7033 418.304 38.4869 415.611 38.4869C413.828 38.4869 411.488 39.0997 409.185 40.2326L407.245 35.3482C410.615 33.7975 413.717 32.9432 417.246 32.9432C423.161 32.9432 426.615 35.8775 426.652 40.9198L426.643 40.9291ZM419.697 47.8099V45.897H415.491C413.503 45.897 412.51 46.6306 412.51 48.1721C412.51 49.7136 413.578 50.6514 415.407 50.6514C417.515 50.6514 419.261 49.4722 419.697 47.8007V47.8099Z" fill="white"/>
<path d="M445.382 32.9524V39.5826C441.454 39.174 438.835 40.9662 438.473 44.0213V55.2573H431.407V33.2403H438.473V36.8989C439.941 34.3732 442.364 32.9524 445.382 32.9524Z" fill="white"/>
<path d="M455.504 33.2403V55.2573H448.484V33.2403H455.504ZM455.225 27.0559C455.225 28.9688 453.879 30.3524 452.012 30.3524C450.146 30.3524 448.799 28.9688 448.799 27.0559C448.799 25.143 450.146 23.7222 452.012 23.7222C453.879 23.7222 455.225 25.1058 455.225 27.0559Z" fill="white"/>
<path d="M479.991 40.9291V55.2573H473.045V52.7779C471.652 54.6073 469.47 55.5823 466.573 55.5823C461.967 55.5823 459.228 52.7315 459.228 48.7014C459.228 44.6713 462.125 42.1084 467.446 42.0248H473.045V41.7834C473.045 39.7033 471.652 38.4869 468.959 38.4869C467.176 38.4869 464.836 39.0997 462.533 40.2326L460.593 35.3482C463.963 33.7975 467.065 32.9432 470.594 32.9432C476.509 32.9432 479.963 35.8775 480 40.9198L479.991 40.9291ZM473.045 47.8099V45.897H468.838C466.851 45.897 465.867 46.6306 465.867 48.1721C465.867 49.7136 466.935 50.6514 468.764 50.6514C470.863 50.6514 472.618 49.4722 473.054 47.8007L473.045 47.8099Z" fill="white"/>
<path d="M228.026 3.48812V19.525H226.197V3.48812H228.026Z" fill="white"/>
<path d="M257.406 12.1055V19.525H255.624V12.5605C255.624 10.4062 254.342 9.1247 252.206 9.1247C249.82 9.14327 248.362 10.7312 248.148 13.0619V19.525H246.365V7.48107H248.148V10.1369C248.993 8.30756 250.619 7.43463 252.819 7.41606C255.707 7.41606 257.397 9.18039 257.397 12.1147L257.406 12.1055Z" fill="white"/>
<path d="M278.226 8.90185C276.87 8.90185 275.839 9.38472 275.839 10.5269C275.839 13.2477 282.572 11.8547 282.572 16.182C282.572 18.5406 280.464 19.5993 278.152 19.5993C276.434 19.5993 274.669 19.005 273.527 17.8999L274.214 16.5906C275.245 17.5563 276.805 18.1228 278.226 18.1228C279.647 18.1228 280.789 17.5749 280.817 16.3584C280.882 13.4241 274.131 14.9192 274.149 10.6569C274.149 8.36327 276.146 7.37894 278.337 7.37894C279.777 7.37894 281.179 7.81537 282.182 8.47467L281.495 9.84903C280.557 9.25473 279.34 8.88326 278.217 8.88326L278.226 8.90185Z" fill="white"/>
<path d="M305.48 18.6985C304.635 19.2742 303.716 19.59 302.75 19.59C300.986 19.6086 299.676 18.5592 299.676 16.1728V9.23613H297.93V7.84323H299.676V4.68599H301.441V7.84323H305.266V9.23613H301.441V15.8756C301.441 17.3428 302.016 17.9371 303.047 17.9371C303.669 17.9185 304.31 17.7049 304.969 17.3149L305.471 18.6892L305.48 18.6985Z" fill="white"/>
<path d="M323.959 4.01743C323.959 4.70459 323.458 5.23389 322.789 5.23389C322.12 5.23389 321.619 4.70459 321.619 4.01743C321.619 3.33027 322.12 2.80097 322.789 2.80097C323.458 2.80097 323.959 3.30241 323.959 4.01743ZM323.69 7.48107V19.525H321.925V7.48107H323.69Z" fill="white"/>
<path d="M348.01 18.6985C347.165 19.2742 346.245 19.59 345.28 19.59C343.515 19.6086 342.206 18.5592 342.206 16.1728V9.23613H340.46V7.84323H342.206V4.68599H343.97V7.84323H347.796V9.23613H343.97V15.8756C343.97 17.3428 344.546 17.9371 345.577 17.9371C346.199 17.9185 346.84 17.7049 347.499 17.3149L348 18.6892L348.01 18.6985Z" fill="white"/>
<path d="M374.92 7.48107V19.525H373.137V16.7949C372.339 18.6707 370.732 19.5714 368.559 19.59C365.746 19.59 364.046 17.8071 364.046 14.8913V7.47178H365.829V14.4362C365.829 16.5906 367.092 17.872 369.172 17.872C371.67 17.8256 373.137 15.9963 373.137 13.3777V7.47178H374.92V7.48107Z" fill="white"/>
<path d="M397.847 9.01327C395.349 9.01327 393.566 10.8426 393.566 13.4984C393.566 16.1542 395.349 18.0114 397.847 18.0114C399.426 18.0114 400.735 17.4635 401.58 16.4513L402.611 17.5006C401.534 18.81 399.862 19.5807 397.782 19.5807C394.281 19.5807 391.802 17.0828 391.802 13.4891C391.802 9.89544 394.3 7.39753 397.782 7.39753C399.732 7.39753 401.329 8.0661 402.434 9.18041L401.45 10.4155C400.531 9.52401 399.324 8.99468 397.856 8.99468L397.847 9.01327Z" fill="white"/>
<path d="M421.638 4.01743C421.638 4.70459 421.136 5.23389 420.468 5.23389C419.799 5.23389 419.298 4.70459 419.298 4.01743C419.298 3.33027 419.799 2.80097 420.468 2.80097C421.136 2.80097 421.638 3.30241 421.638 4.01743ZM421.359 7.48107V19.525H419.595V7.48107H421.359Z" fill="white"/>
<path d="M450.471 13.4798C450.471 17.0735 447.927 19.5993 444.351 19.5993C440.776 19.5993 438.232 17.0828 438.232 13.4798C438.232 9.87687 440.749 7.40682 444.351 7.40682C447.954 7.40682 450.471 9.90472 450.471 13.4798ZM440.024 13.4984C440.024 16.2006 441.807 18.03 444.351 18.03C446.896 18.03 448.679 16.2006 448.679 13.4984C448.679 10.7962 446.868 8.98539 444.351 8.98539C441.835 8.98539 440.024 10.8426 440.024 13.4984ZM447.704 3.17243L444.862 5.43821H443.144L445.893 2.34597L447.704 3.17243Z" fill="white"/>
<path d="M478.394 12.1055V19.525H476.611V12.5605C476.611 10.4062 475.329 9.1247 473.194 9.1247C470.807 9.14327 469.349 10.7312 469.136 13.0619V19.525H467.353V7.48107H469.136V10.1369C469.981 8.30756 471.606 7.43463 473.806 7.41606C476.694 7.41606 478.384 9.18039 478.384 12.1147L478.394 12.1055Z" fill="white"/>
<path d="M181.141 17.3985C180.909 7.12819 168.614 3.41387 159.7 1.72382C137.358 -1.42411 113.558 1.51953 90.7608 6.94252C85.2171 8.36327 79.5712 9.89543 74.0182 11.6226C75.0118 10.5547 75.8011 9.34757 76.3026 8.08468C77.8812 3.79457 75.5133 0.414474 71.2232 0.414474C70.8796 0.414474 70.6567 0.414474 70.3224 0.414474C66.2552 0.758055 61.8629 4.02673 60.2843 8.09397C58.7057 12.2726 60.9622 15.6527 65.3637 15.6527C67.0538 15.6527 68.7531 15.1977 70.3317 14.4084C71.6596 13.7398 72.8761 12.8298 73.8882 11.7712C79.822 11.2326 85.8671 11.0191 92.1166 11.1212C112.063 11.1119 130.059 13.7584 143.672 18.0949H143.663L136.448 28.4766C134.758 30.8446 133.068 33.3332 131.944 35.3575C130.811 37.2797 129.576 39.1926 128.675 41.0034H128.443C129.121 38.1804 129.678 34.4567 130.022 30.1666C130.245 29.3773 130.133 28.9224 130.245 28.5881L131.025 18.0949L114.774 17.9928L100.232 44.2906L91.3272 60.2067L100.242 60.3181H106.668L115.118 43.6127C115.573 42.3684 116.474 40.9012 116.919 39.6662C117.365 38.654 118.043 37.2983 118.489 35.9425C118.266 37.0661 118.043 38.5333 117.931 39.889C117.597 41.1334 117.597 42.712 117.486 44.1792L116.251 60.3088L125.722 60.4203L136.884 44.1699C137.785 42.8141 138.908 41.2355 139.818 39.7683C140.487 38.524 141.397 37.0568 141.954 36.0447C141.508 37.289 141.397 38.7561 140.942 39.9912C140.487 41.0033 140.153 42.4705 139.586 43.7149L135.417 60.411H150.878L158.53 24.5394C164.491 28.1144 168.252 32.2096 169.162 36.5925C174.353 32.191 178.634 27.1116 180.556 21.5771C180.89 20.2214 181.113 18.9771 181.113 17.8535V17.3985H181.141Z" fill="white"/>
<path d="M88.4765 67.9605C60.2379 67.9697 35.8995 62.6489 22.5648 54.7094H26.0099L27.9229 49.5186H22.5091L20.9584 53.7158C15.8883 50.3915 12.7032 46.6399 11.8767 42.6655C6.72301 47.0392 2.46075 52.0908 0.557134 57.5788C0.22284 58.9252 0 60.1603 0 61.2839V61.7296C0.232149 71.9349 12.4525 75.6214 21.3113 77.3021C43.514 80.4315 67.1652 77.5064 89.823 72.1113C95.5338 70.6534 101.375 69.0748 107.086 67.2826C101.031 67.849 94.8652 68.0719 88.4765 67.9698V67.9605Z" fill="white"/>
<path d="M45.0646 33.8253L46.9775 28.4023L43.2539 28.4116H41.5639L39.5396 33.7139H43.2539L45.0646 33.8253Z" fill="white"/>
<path d="M68.2053 60.216H70.3504L84.2236 60.2067L94.9303 31.7731L100.233 31.7638H103.845L109.026 17.9928L100.223 18.0021L75.4019 17.8999L70.3318 31.1045L70.1089 31.671H70.3318L79.0234 31.7731L70.3411 54.4587L68.2053 60.216Z" fill="white"/>
<path d="M37.283 39.4712L37.5059 38.9047H37.283H31.9715L30.0586 44.207L35.4723 44.3185L37.283 39.4712Z" fill="white"/>
<path d="M37.1716 54.8116H37.2924H42.5854L40.561 60.1138H43.2725L55.79 60.1046H56.4679L70.3318 23.5458L72.4675 17.8999H70.3318L56.5607 17.7978L55.7714 19.9428L52.5027 28.5138H55.7807H58.1486L56.0036 33.7046H55.7807H50.5898L48.5655 38.8954L43.254 38.9047H43.1425L41.1182 44.3185H43.2632H46.5319L44.5076 49.5093H43.2632L39.2053 49.3979L37.2924 54.3566L37.1716 54.8116Z" fill="white"/>
<path d="M204.866 3.03312H203.799V75.4635H204.866V3.03312Z" fill="white"/>
</svg>
